<svg xmlns="http://www.w3.org/2000/svg" viewBox="0 0 155 234" enable-background="new 0 0 155 234"><g><path fill-rule="evenodd" clip-rule="evenodd" fill="#fff" d="M10.4 89.8c1.9 2.6 17.5 7.4 40.7 12.4 23.3 4.5 47.5 22.1 66.3 16.6 12.7-3.7 26.5-36.5 26.5-41.3v-.5c0-3.4-2.5-6.1-6.9-8.4-17.6-9-21-12.4-27.6-10.6-34.1 9.4-94.4 4.6-99 31.8zM10.4 156.4c1.9 2.6 17.5 7.4 40.7 12.4 26 4.7 48.6 20.2 67.4 14.8 12.7-3.7 25.4-34.6 25.4-39.5v-.5c0-3.4-2.5-6.1-6.9-8.4-13.5-7.2-31.4-15.1-38-13.3-34.1 9.4-79.8 11.5-88.6 34.5z" opacity=".5"/><path fill-rule="evenodd" clip-rule="evenodd" fill="#555" d="M10.3 104.1v.5-.5z"/><path fill-rule="evenodd" clip-rule="evenodd" fill="#fff" d="M118.6 23.8c-31.5 9.1-81.4 14.2-108.3 14.2v51.3c0 .1.1.3.2.5 18.4 0 75-6 109.2-15.4 6.6-1.8 12.9-3.8 17.5-5.8 4.2-1.9 6.9-3.9 6.9-5.9v-51.8c-.1 4.9-12.8 9.2-25.5 12.9zM118.6 90.4c-18.8 5.4-44.2 9.5-67.4 11.8-15.5 1.6-30.1 2.4-40.9 2.4v51.3c0 .1.1.3.2.5 18.4 0 75-6 109.2-15.4 6.6-1.8 12.9-3.8 17.5-5.8 4.2-1.9 6.9-3.9 6.9-5.9v-51.8c-.1 4.9-12.8 9.2-25.5 12.9zM118.6 157c-18.8 5.4-44.2 9.5-67.4 11.8-15.6 1.6-30.1 2.4-40.9 2.4v51.8c18.2 0 75.1-6 109.4-15.4 12.6-3.5 24.4-7.4 24.4-11.7v-51.8c-.1 4.9-12.8 9.2-25.5 12.9z"/></g></svg>