<svg xmlns="http://www.w3.org/2000/svg" viewBox="0 0 590 270" enable-background="new 0 0 590 270"><g><g fill="#380D09"><path d="M200.7 142.4c6 11.8 15.6 17.6 29.1 17.6 14.4 0 19.6-7.6 19.6-15.1 0-5.1-1.8-8.6-6.6-11.8-4.8-3.3-8.3-4.8-16.9-8-10.6-4-16.8-7-23.4-12.3-6.6-5.5-9.8-12.9-9.8-22.7 0-9.3 3.5-16.8 10.3-22.6 7-5.8 15.4-8.6 25.6-8.6 15.8 0 27.7 6.3 35.7 18.8l-14.8 10.1c-4.5-6.8-11.3-10.3-20.6-10.3-9.1 0-15.8 5.1-15.8 12.3 0 4.8 2 7.1 4.8 10 1.8 1.3 6.5 3.3 8.6 4.5l6 2.3 6.8 2.7c11 4.5 18.8 9.3 23.6 14.4 4.8 5.1 7.3 12.1 7.3 20.8 0 20.4-14.1 34.2-40.5 34.2-21.4 0-37.2-10-44.5-26.4l15.5-9.9zM354.2 104.7l-12.2 12.8c-5.8-6.1-12.9-9.1-21.2-9.1-7.3 0-13.4 2.5-18.4 7.5-4.8 5-7.3 11.3-7.3 18.8s2.5 13.8 7.3 18.8c5 5 11.1 7.5 18.4 7.5 8.3 0 15.4-3 21.2-9.1l12.3 12.8c-9 9.6-20.1 14.4-33.5 14.4-12.8 0-23.6-4.1-32.4-12.6-8.8-8.5-13.1-19.1-13.1-31.7s4.3-23.1 13.1-31.5c8.8-8.5 19.6-12.8 32.4-12.8 13.4-.2 24.5 4.6 33.4 14.2zM393.9 125.6c14.1-1.3 19.1-3.2 19.1-9.6 0-5.1-4.6-9.1-13.9-9.1-9 0-16.4 3.7-22.4 11l-12.3-10.5c8.1-11.5 19.6-17.1 34.4-17.1 20.8 0 33.7 10 33.7 27.1v37c0 5.8 2.2 6.5 7 6.5h.5v15.4c-2 1.2-5.1 1.8-9.3 1.8-4.5 0-8-1.3-10.6-4-1.2-1.2-2.2-3-3-5.5-5.8 6.8-15.3 10.3-28.4 10.3-18.4 0-30.9-10.1-30.9-25.4-.1-17.1 11.4-25.7 36.1-27.9zm-2.3 36.4c13.3 0 21.4-6 21.4-16.6v-9.3c-.8 1-2.3 1.8-4.1 2.5-3.8 1.3-6.3 1.7-14.3 2.5-11.6 1.3-17.4 5-17.4 10.8-.1 6.4 5.2 10.1 14.4 10.1zM444.8 60.9h19.9v88.3c0 8.1 2.7 11.6 10 11.6 2.3 0 4.3-.2 6-.7v17.8c-2.3.7-5.5 1-9.5 1-17.6 0-26.4-9-26.4-27.1v-90.9zM521.7 125.6c14.1-1.3 19.1-3.2 19.1-9.6 0-5.1-4.6-9.1-13.9-9.1-9 0-16.4 3.7-22.4 11l-12.3-10.5c8.1-11.5 19.6-17.1 34.4-17.1 20.8 0 33.7 10 33.7 27.1v37c0 5.8 2.2 6.5 7 6.5h.5v15.4c-2 1.2-5.1 1.8-9.3 1.8-4.5 0-8-1.3-10.6-4-1.2-1.2-2.2-3-3-5.5-5.8 6.8-15.3 10.3-28.4 10.3-18.4 0-30.9-10.1-30.9-25.4-.1-17.1 11.4-25.7 36.1-27.9zm-2.3 36.4c13.3 0 21.4-6 21.4-16.6v-9.3c-.8 1-2.3 1.8-4.1 2.5-3.8 1.3-6.3 1.7-14.3 2.5-11.6 1.3-17.4 5-17.4 10.8-.1 6.4 5.3 10.1 14.4 10.1z"/></g><path fill-rule="evenodd" clip-rule="evenodd" fill="#380D09" d="M30.5 94.8c1.9 2.6 17.5 7.4 40.7 12.4 23.3 4.5 47.5 22.1 66.3 16.6 12.7-3.7 26.5-36.5 26.5-41.3v-.5c0-3.4-2.5-6.1-6.9-8.4-17.7-9.1-21.1-12.4-27.7-10.6-34 9.4-94.3 4.6-98.9 31.8zM30.5 161.4c1.9 2.6 17.5 7.4 40.7 12.4 26 4.7 48.6 20.2 67.4 14.8 12.7-3.7 25.4-34.6 25.4-39.5v-.5c0-3.4-2.5-6.1-6.9-8.4-13.5-7.2-31.4-15.1-38-13.3-34.1 9.4-79.8 11.5-88.6 34.5z"/><path fill-rule="evenodd" clip-rule="evenodd" fill="#555" d="M30.4 109.1v.5-.5z"/><path fill-rule="evenodd" clip-rule="evenodd" fill="#DE3423" d="M138.7 28.8c-31.5 9.1-81.4 14.2-108.3 14.2v51.3c0 .1.1.3.2.5 18.4 0 75-6 109.2-15.4 6.6-1.8 12.9-3.8 17.5-5.8 4.2-1.9 6.9-3.9 6.9-5.9v-51.8c-.1 4.9-12.8 9.2-25.5 12.9zM138.7 95.4c-18.8 5.4-44.2 9.5-67.4 11.8-15.5 1.6-30.1 2.4-40.9 2.4v51.3c0 .1.1.3.2.5 18.4 0 75-6 109.2-15.4 6.6-1.8 12.9-3.8 17.5-5.8 4.2-1.9 6.9-3.9 6.9-5.9v-51.8c-.1 4.9-12.8 9.2-25.5 12.9zM138.7 162c-18.8 5.4-44.2 9.5-67.4 11.8-15.6 1.6-30.1 2.4-40.9 2.4v51.8c18.2 0 75.1-6 109.4-15.4 12.6-3.5 24.4-7.4 24.4-11.7v-51.8c-.1 4.9-12.8 9.2-25.5 12.9z"/></g></svg>