<svg xmlns="http://www.w3.org/2000/svg" xmlns:xlink="http://www.w3.org/1999/xlink" viewBox="0 0 154 154" enable-background="new 0 0 154 154"><g><defs><circle id="a" cx="76.5" cy="76.5" r="75"/></defs><clipPath id="b"><use xlink:href="#a" overflow="visible"/></clipPath><g clip-path="url(#b)"><path fill="#15A9CE" d="M67.2 84.2h146.2c4.8 0 8.7-3.9 8.7-8.7 0-4.8-3.9-8.7-8.7-8.7h-146.2c-4.8 0-8.7 3.9-8.7 8.7 0 4.8 3.9 8.7 8.7 8.7z"/><path fill="#92D13D" d="M85.2 55.8h146.2c4.8 0 8.7-3.9 8.7-8.7 0-4.8-3.9-8.7-8.7-8.7h-146.2c-4.8 0-8.7 3.9-8.7 8.7 0 4.9 3.9 8.7 8.7 8.7z"/><path fill="#DE3423" d="M49.2 112.5h146.2c4.8 0 8.7-3.9 8.7-8.7 0-4.8-3.9-8.7-8.7-8.7h-146.2c-4.8 0-8.7 3.9-8.7 8.7 0 4.8 3.9 8.7 8.7 8.7z"/></g><path fill="#fff" d="M76.5 1c-41.6 0-75.5 33.9-75.5 75.5s33.9 75.5 75.5 75.5 75.5-33.9 75.5-75.5-33.9-75.5-75.5-75.5zm0 142c-36.7 0-66.5-29.8-66.5-66.5s29.8-66.5 66.5-66.5 66.5 29.8 66.5 66.5-29.8 66.5-66.5 66.5z"/></g></svg>